<svg width="40" height="40" viewBox="0 0 40 40" fill="none" xmlns="http://www.w3.org/2000/svg">
<path d="M1 19.24C1 10.6414 1 6.33767 3.6706 3.6706C6.34121 1.00353 10.6414 1 19.24 1H20.76C29.3586 1 33.6623 1 36.3294 3.6706C38.9965 6.34121 39 10.6414 39 19.24V20.76C39 29.3586 39 33.6623 36.3294 36.3294C33.6588 38.9965 29.3586 39 20.76 39H19.24C10.6414 39 6.33767 39 3.6706 36.3294C1.00353 33.6588 1 29.3586 1 20.76V19.24Z" fill="#B069FF"/>
<path d="M20.5246 27C12.6672 27 8.18847 21.7444 8 13H11.9407C12.0692 19.4191 14.9716 22.1372 17.2692 22.6955V13H20.9752V18.5365C23.2437 18.2974 25.6287 15.7749 26.4322 13H30.1382C29.5214 16.4202 26.9359 18.9427 25.0975 19.9791C26.9359 20.8149 29.8795 23.0198 31 27H26.9137C26.0381 24.3254 23.8553 22.2693 20.9683 21.9851V27H20.5246Z" fill="white"/>
</svg>
