<svg width="40" height="40" viewBox="0 0 40 40" fill="none" xmlns="http://www.w3.org/2000/svg">
<path d="M1 19.24C1 10.6414 1 6.33767 3.6706 3.6706C6.34121 1.00353 10.6414 1 19.24 1H20.76C29.3586 1 33.6623 1 36.3294 3.6706C38.9965 6.34121 39 10.6414 39 19.24V20.76C39 29.3586 39 33.6623 36.3294 36.3294C33.6588 38.9965 29.3586 39 20.76 39H19.24C10.6414 39 6.33767 39 3.6706 36.3294C1.00353 33.6588 1 29.3586 1 20.76V19.24Z" fill="#B069FF"/>
<path d="M28.6739 13.7743C26.5971 12.267 23.3118 12.0115 23.1712 12.0023C22.9531 11.9858 22.7452 12.0961 22.6556 12.278C22.6474 12.2891 22.5761 12.438 22.4966 12.6696C23.8702 12.8791 25.5577 13.3001 27.0842 14.1548C27.3288 14.2908 27.4042 14.5813 27.2534 14.8019C27.1535 14.9471 26.9844 15.0261 26.8091 15.0261C26.7154 15.0261 26.6196 15.0022 26.534 14.9544C23.909 13.4857 20.6318 13.4122 20 13.4122C19.3682 13.4122 16.089 13.4857 13.466 14.9544C13.2215 15.0923 12.8995 15.0243 12.7486 14.8037C12.5958 14.5813 12.6712 14.2927 12.9158 14.1548C14.4423 13.3019 16.1298 12.8791 17.5034 12.6714C17.4239 12.438 17.3526 12.2909 17.3465 12.278C17.2548 12.0961 17.0489 11.9821 16.8288 12.0023C16.6882 12.0115 13.4029 12.267 11.2976 13.7945C10.199 14.7118 8 20.0719 8 24.706C8 24.7887 8.02446 24.8677 8.06929 24.9394C9.5856 27.3438 13.7249 27.9724 14.6685 28C14.6726 28 14.6787 28 14.6848 28C14.8519 28 15.0088 27.9283 15.1067 27.807L16.0605 26.6232C13.4864 26.024 12.1719 25.0056 12.0965 24.9449C11.8804 24.774 11.8601 24.4762 12.0516 24.2814C12.2412 24.0865 12.5713 24.0681 12.7874 24.2391C12.8179 24.2648 15.2391 26.1177 20 26.1177C24.769 26.1177 27.1902 24.2575 27.2147 24.2391C27.4307 24.07 27.7588 24.0865 27.9504 24.2832C28.1399 24.478 28.1196 24.774 27.9035 24.9449C27.8281 25.0056 26.5136 26.024 23.9395 26.6232L24.8933 27.807C24.9912 27.9283 25.1481 28 25.3152 28C25.3213 28 25.3274 28 25.3315 28C26.2751 27.9724 30.4144 27.3438 31.9307 24.9394C31.9755 24.8677 32 24.7887 32 24.706C32 20.0719 29.801 14.7118 28.6739 13.7743ZM16.6087 22.8237C15.5999 22.8237 14.7826 21.9818 14.7826 20.9414C14.7826 19.901 15.5999 19.0591 16.6087 19.0591C17.6175 19.0591 18.4348 19.901 18.4348 20.9414C18.4348 21.9818 17.6175 22.8237 16.6087 22.8237ZM23.3913 22.8237C22.3825 22.8237 21.5652 21.9818 21.5652 20.9414C21.5652 19.901 22.3825 19.0591 23.3913 19.0591C24.4001 19.0591 25.2174 19.901 25.2174 20.9414C25.2174 21.9818 24.4001 22.8237 23.3913 22.8237Z" fill="white"/>
</svg>
