<svg width="24" height="24" viewBox="0 0 24 24" fill="none" xmlns="http://www.w3.org/2000/svg">
<path fill-rule="evenodd" clip-rule="evenodd" d="M11.9999 22.785C17.9562 22.785 22.7847 17.9562 22.7847 11.9999C22.7847 6.04349 17.9562 1.21499 11.9999 1.21499C6.04349 1.21499 1.21499 6.04349 1.21499 11.9999C1.21499 17.9562 6.04349 22.785 11.9999 22.785ZM11.9999 15.7182C13.0684 15.7182 13.6274 17.0245 12.8588 17.7924L12.8576 17.7912C11.7244 18.9227 10.0103 17.2086 11.1418 16.0753L11.1406 16.0742C11.3606 15.8541 11.6642 15.7182 11.9999 15.7182ZM11.4684 5.85187C12.1744 5.85187 13.1394 5.68211 13.1394 6.45936V14.2065C13.1394 14.984 12.1744 14.814 11.4684 14.814C11.1331 14.814 10.8609 14.5418 10.8609 14.2065V6.45936C10.8606 6.12373 11.1328 5.85187 11.4684 5.85187ZM20.4853 20.4856C15.799 25.1719 8.201 25.1719 3.51471 20.4856C-1.17157 15.7993 -1.17157 8.201 3.51471 3.51471C8.201 -1.17157 15.799 -1.17157 20.4853 3.51471C25.1716 8.2013 25.1716 15.7993 20.4853 20.4856Z" fill="#E04545"/>
</svg>
