<svg width="40" height="40" viewBox="0 0 40 40" fill="none" xmlns="http://www.w3.org/2000/svg">
<path d="M1 20.24C1 11.6414 0.999997 7.33767 3.6706 4.6706C6.34121 2.00353 10.6414 2 19.24 2H20.76C29.3586 2 33.6623 2 36.3294 4.6706C38.9965 7.34121 39 11.6414 39 20.24V21.76C39 30.3586 39 34.6623 36.3294 37.3294C33.6588 39.9965 29.3586 40 20.76 40H19.24C10.6414 40 6.33767 40 3.6706 37.3294C1.00353 34.6588 1 30.3586 1 21.76V20.24Z" fill="#B069FF"/>
<path d="M19.959 20.3194C21.0147 20.3194 22.0466 20.0168 22.9244 19.4498C23.8021 18.8829 24.4863 18.077 24.8902 17.1342C25.2942 16.1914 25.3999 15.154 25.194 14.1531C24.988 13.1522 24.4797 12.2328 23.7332 11.5112C22.9868 10.7896 22.0357 10.2982 21.0003 10.0991C19.965 9.90005 18.8918 10.0022 17.9165 10.3928C16.9412 10.7833 16.1076 11.4446 15.5211 12.2931C14.9346 13.1416 14.6215 14.1392 14.6215 15.1597C14.6237 16.5275 15.1867 17.8387 16.1872 18.8059C17.1877 19.773 18.5441 20.3173 19.959 20.3194ZM19.959 13.0181C20.3973 13.0178 20.8258 13.1431 21.1903 13.3782C21.5548 13.6134 21.839 13.9478 22.007 14.3391C22.1749 14.7304 22.219 15.161 22.1337 15.5765C22.0484 15.9921 21.8375 16.3738 21.5278 16.6735C21.218 16.9732 20.8233 17.1773 20.3935 17.26C19.9637 17.3428 19.5181 17.3005 19.1132 17.1384C18.7083 16.9764 18.3622 16.7019 18.1187 16.3497C17.8752 15.9975 17.7453 15.5833 17.7453 15.1597C17.7453 14.592 17.9784 14.0475 18.3936 13.6459C18.8087 13.2443 19.3718 13.0185 19.959 13.0181Z" fill="white"/>
<path d="M22.124 24.5208C23.2253 24.2785 24.2761 23.8571 25.2314 23.2745C25.4116 23.1711 25.5685 23.0339 25.6929 22.8709C25.8174 22.7079 25.9069 22.5225 25.9561 22.3256C26.0053 22.1287 26.0132 21.9243 25.9795 21.7244C25.9457 21.5245 25.8709 21.3331 25.7595 21.1615C25.6481 20.99 25.5023 20.8417 25.3307 20.7255C25.159 20.6092 24.9651 20.5274 24.7603 20.4847C24.5554 20.442 24.3438 20.4393 24.1379 20.4769C23.932 20.5144 23.736 20.5914 23.5613 20.7034C22.4829 21.3528 21.2377 21.697 19.9672 21.697C18.6966 21.697 17.4515 21.3528 16.373 20.7034C16.0206 20.501 15.6004 20.4398 15.2019 20.5329C14.8035 20.6259 14.4585 20.8658 14.2405 21.2014C14.0225 21.537 13.9489 21.9416 14.0353 22.3289C14.1217 22.7163 14.3613 23.0556 14.7029 23.2745C15.6568 23.8598 16.7081 24.2814 17.8104 24.5208L14.8201 27.413C14.6746 27.5535 14.5592 27.7203 14.4805 27.9039C14.4017 28.0875 14.3612 28.2843 14.3612 28.483C14.3612 28.6818 14.4017 28.8786 14.4805 29.0622C14.5592 29.2458 14.6746 29.4126 14.8201 29.5531C15.1161 29.8338 15.5124 29.9937 15.927 29.9999C16.1332 30.0016 16.3376 29.9629 16.5278 29.8861C16.7181 29.8093 16.8902 29.696 17.0339 29.5531L19.9753 26.7096L22.9167 29.5531C23.2103 29.8371 23.6085 29.9967 24.0238 29.9968C24.4392 29.997 24.8375 29.8376 25.1313 29.5538C25.4251 29.2701 25.5902 28.8851 25.5904 28.4836C25.5905 28.0821 25.4257 27.697 25.1321 27.413L22.124 24.5208Z" fill="white"/>
</svg>
