<svg width="40" height="40" viewBox="0 0 40 40" fill="none" xmlns="http://www.w3.org/2000/svg">
<path d="M1 19.24C1 10.6414 0.999997 6.33767 3.6706 3.6706C6.34121 1.00353 10.6414 1 19.24 1H20.76C29.3586 1 33.6623 1 36.3294 3.6706C38.9965 6.34121 39 10.6414 39 19.24V20.76C39 29.3586 39 33.6623 36.3294 36.3294C33.6588 38.9965 29.3586 39 20.76 39H19.24C10.6414 39 6.33767 39 3.6706 36.3294C1.00353 33.6588 1 29.3586 1 20.76V19.24Z" fill="#B069FF"/>
<path fill-rule="evenodd" clip-rule="evenodd" d="M8.51171 18.7494C14.4171 16.2094 18.3552 14.5346 20.3259 13.7253C25.9531 11.4141 27.1211 11.0122 27.8837 11.0004C28.1637 10.9938 28.4386 11.0751 28.6687 11.2327C28.8297 11.3713 28.9326 11.5641 28.9573 11.7736C28.9983 12.0343 29.0098 12.2988 28.9916 12.5621C28.6859 15.7244 27.3667 23.3989 26.6951 26.9394C26.4117 28.4383 25.8534 28.9419 25.3107 28.9911C24.134 29.0979 23.2408 28.223 22.102 27.4854C20.3191 26.3323 19.3108 25.6202 17.5811 24.4875C15.58 23.1869 16.8768 22.4714 18.0174 21.3031C18.3162 20.9962 23.4985 16.3416 23.5998 15.9194C23.6128 15.8574 23.6111 15.7933 23.5947 15.7321C23.5783 15.6709 23.5477 15.6143 23.5054 15.5667C23.4438 15.5275 23.3737 15.5034 23.3008 15.4963C23.2279 15.4892 23.1544 15.4994 23.0863 15.526C22.9076 15.5667 20.0591 17.4251 14.5408 21.1013C13.7312 21.6507 12.9989 21.918 12.3439 21.9033C11.619 21.8881 10.2277 21.4998 9.19363 21.1674C7.92598 20.7605 6.9177 20.5451 7.00531 19.8533C7.04997 19.4916 7.5521 19.1236 8.51171 18.7494Z" fill="white"/>
</svg>
