<svg width="50" height="50" viewBox="0 0 50 50" fill="none" xmlns="http://www.w3.org/2000/svg">
<path d="M37.0955 29.4278C37.5604 29.4278 38.0206 29.4072 38.4751 29.3668L34.993 35.1788C31.3044 34.8163 27.8923 33.51 25.0008 31.5043C22.1092 33.51 18.6971 34.8163 15.0084 35.1788L11.5264 29.3668C11.9809 29.4072 12.4411 29.4278 12.906 29.4278C17.7902 29.4278 22.144 27.1539 24.9696 23.6056L25.0008 23.5664C24.9904 23.5533 25.0111 23.5796 25.0008 23.5664L25.0319 23.6056C27.8575 27.1539 32.2112 29.4278 37.0955 29.4278Z" fill="#121212"/>
<path d="M20.5546 39.5785C20.5546 37.1366 22.5313 35.157 24.9696 35.157C27.408 35.157 29.3847 37.1366 29.3847 39.5785C29.3847 42.0205 27.408 44 24.9696 44C22.5313 44 20.5546 42.0205 20.5546 39.5785Z" fill="#121212"/>
<path d="M37.8692 28.1454C38.1017 28.5487 38.314 28.9581 38.5063 29.3725L41.7913 23.4464C39.6335 20.4286 36.7978 18.1224 33.6176 16.6175C33.9063 13.1068 33.3298 9.49437 31.7991 6.114L25.032 6C25.2941 6.37402 25.542 6.76283 25.7746 7.16611C28.2167 11.4021 28.4272 16.3151 26.7716 20.5399L26.7532 20.5864C26.7367 20.584 26.8029 20.5937 26.7532 20.5864L26.8027 20.5938C31.2839 21.2703 35.4272 23.9094 37.8692 28.1454Z" fill="#0AD452"/>
<path d="M38.3767 8.72428C36.2651 9.94524 35.5415 12.6494 36.7607 14.7642C37.9799 16.8789 40.6801 17.6035 42.7917 16.3825C44.9034 15.1615 45.627 12.4574 44.4077 10.3427C43.1886 8.2279 40.4884 7.50333 38.3767 8.72428Z" fill="#0AD452"/>
<path d="M12.1309 28.1454C11.8984 28.5487 11.6861 28.9581 11.4937 29.3725L8.2088 23.4464C10.3666 20.4286 13.2023 18.1224 16.3825 16.6175C16.0938 13.1068 16.6703 9.49437 18.201 6.114L24.9681 6C24.706 6.37402 24.4581 6.76283 24.2255 7.16611C21.7834 11.4021 21.5729 16.3151 23.2285 20.5399L23.2469 20.5864L23.1974 20.5938C18.7162 21.2703 14.573 23.9094 12.1309 28.1454Z" fill="#B069FF"/>
<path d="M11.6233 8.72428C13.7349 9.94524 14.4585 12.6494 13.2393 14.7642C12.0201 16.8789 9.31992 17.6035 7.20825 16.3825C5.09658 15.1615 4.37306 12.4574 5.59224 10.3427C6.81142 8.2279 9.5116 7.50333 11.6233 8.72428Z" fill="#B069FF"/>
</svg>
